<svg id="visual" viewBox="0 0 960 540" width="960" height="540" xmlns="http://www.w3.org/2000/svg" xmlns:xlink="http://www.w3.org/1999/xlink" version="1.1"><g stroke-width="1" stroke-linejoin="bevel"><path d="M504 213L582 305L601 200Z" fill="#2d79a2" stroke="#2d79a2"></path><path d="M708 215L623 120L601 200Z" fill="#434e78" stroke="#434e78"></path><path d="M601 200L493 88L504 213Z" fill="#405884" stroke="#405884"></path><path d="M504 213L457 348L582 305Z" fill="#31739e" stroke="#31739e"></path><path d="M582 305L708 215L601 200Z" fill="#42537e" stroke="#42537e"></path><path d="M623 120L493 88L601 200Z" fill="#3e5e8a" stroke="#3e5e8a"></path><path d="M504 213L360 319L457 348Z" fill="#31739e" stroke="#31739e"></path><path d="M588 444L716 333L582 305Z" fill="#386894" stroke="#386894"></path><path d="M582 305L716 333L708 215Z" fill="#297ea6" stroke="#297ea6"></path><path d="M500 443L588 444L582 305Z" fill="#386894" stroke="#386894"></path><path d="M457 348L500 443L582 305Z" fill="#3e5e8a" stroke="#3e5e8a"></path><path d="M351 193L360 319L504 213Z" fill="#356e99" stroke="#356e99"></path><path d="M457 348L346 441L500 443Z" fill="#434e78" stroke="#434e78"></path><path d="M833 110L708 97L708 215Z" fill="#31739e" stroke="#31739e"></path><path d="M708 215L708 97L623 120Z" fill="#405884" stroke="#405884"></path><path d="M623 120L611 0L493 88Z" fill="#356e99" stroke="#356e99"></path><path d="M493 88L351 193L504 213Z" fill="#356e99" stroke="#356e99"></path><path d="M708 97L611 0L623 120Z" fill="#3b638f" stroke="#3b638f"></path><path d="M493 88L351 95L351 193Z" fill="#386894" stroke="#386894"></path><path d="M456 0L351 95L493 88Z" fill="#386894" stroke="#386894"></path><path d="M618 540L721 451L588 444Z" fill="#3e5e8a" stroke="#3e5e8a"></path><path d="M588 444L721 451L716 333Z" fill="#356e99" stroke="#356e99"></path><path d="M716 333L826 298L708 215Z" fill="#405884" stroke="#405884"></path><path d="M611 0L456 0L493 88Z" fill="#297ea6" stroke="#297ea6"></path><path d="M862 419L826 298L716 333Z" fill="#386894" stroke="#386894"></path><path d="M708 97L704 0L611 0Z" fill="#297ea6" stroke="#297ea6"></path><path d="M834 0L704 0L708 97Z" fill="#3e5e8a" stroke="#3e5e8a"></path><path d="M233 425L346 441L360 319Z" fill="#444972" stroke="#444972"></path><path d="M360 319L346 441L457 348Z" fill="#444972" stroke="#444972"></path><path d="M497 540L618 540L588 444Z" fill="#405884" stroke="#405884"></path><path d="M247 218L360 319L351 193Z" fill="#386894" stroke="#386894"></path><path d="M826 298L851 241L708 215Z" fill="#405884" stroke="#405884"></path><path d="M497 540L588 444L500 443Z" fill="#3b638f" stroke="#3b638f"></path><path d="M348 540L497 540L500 443Z" fill="#405884" stroke="#405884"></path><path d="M456 0L380 0L351 95Z" fill="#356e99" stroke="#356e99"></path><path d="M851 241L833 110L708 215Z" fill="#356e99" stroke="#356e99"></path><path d="M263 112L351 193L351 95Z" fill="#444972" stroke="#444972"></path><path d="M263 112L247 218L351 193Z" fill="#42537e" stroke="#42537e"></path><path d="M216 0L263 112L351 95Z" fill="#386894" stroke="#386894"></path><path d="M247 218L230 316L360 319Z" fill="#356e99" stroke="#356e99"></path><path d="M135 241L230 316L247 218Z" fill="#444972" stroke="#444972"></path><path d="M618 540L730 540L721 451Z" fill="#42537e" stroke="#42537e"></path><path d="M721 451L862 419L716 333Z" fill="#2d79a2" stroke="#2d79a2"></path><path d="M960 301L960 192L851 241Z" fill="#405884" stroke="#405884"></path><path d="M820 540L862 419L721 451Z" fill="#356e99" stroke="#356e99"></path><path d="M346 441L348 540L500 443Z" fill="#3e5e8a" stroke="#3e5e8a"></path><path d="M257 540L348 540L346 441Z" fill="#31739e" stroke="#31739e"></path><path d="M960 106L834 0L833 110Z" fill="#3b638f" stroke="#3b638f"></path><path d="M833 110L834 0L708 97Z" fill="#405884" stroke="#405884"></path><path d="M230 316L233 425L360 319Z" fill="#3b638f" stroke="#3b638f"></path><path d="M730 540L820 540L721 451Z" fill="#42537e" stroke="#42537e"></path><path d="M960 301L851 241L826 298Z" fill="#42537e" stroke="#42537e"></path><path d="M851 241L960 192L833 110Z" fill="#2d79a2" stroke="#2d79a2"></path><path d="M960 301L826 298L862 419Z" fill="#42537e" stroke="#42537e"></path><path d="M960 420L960 301L862 419Z" fill="#434e78" stroke="#434e78"></path><path d="M233 425L257 540L346 441Z" fill="#434e78" stroke="#434e78"></path><path d="M380 0L216 0L351 95Z" fill="#434e78" stroke="#434e78"></path><path d="M99 104L135 241L247 218Z" fill="#3e5e8a" stroke="#3e5e8a"></path><path d="M230 316L122 304L233 425Z" fill="#434e78" stroke="#434e78"></path><path d="M99 104L247 218L263 112Z" fill="#444972" stroke="#444972"></path><path d="M233 425L130 540L257 540Z" fill="#31739e" stroke="#31739e"></path><path d="M960 192L960 106L833 110Z" fill="#297ea6" stroke="#297ea6"></path><path d="M960 540L960 420L862 419Z" fill="#3e5e8a" stroke="#3e5e8a"></path><path d="M135 241L122 304L230 316Z" fill="#444972" stroke="#444972"></path><path d="M960 106L960 0L834 0Z" fill="#3b638f" stroke="#3b638f"></path><path d="M216 0L99 104L263 112Z" fill="#3e5e8a" stroke="#3e5e8a"></path><path d="M135 241L0 202L122 304Z" fill="#405884" stroke="#405884"></path><path d="M0 344L119 454L122 304Z" fill="#356e99" stroke="#356e99"></path><path d="M122 304L119 454L233 425Z" fill="#3b638f" stroke="#3b638f"></path><path d="M820 540L960 540L862 419Z" fill="#405884" stroke="#405884"></path><path d="M216 0L102 0L99 104Z" fill="#3e5e8a" stroke="#3e5e8a"></path><path d="M119 454L130 540L233 425Z" fill="#444972" stroke="#444972"></path><path d="M0 125L0 202L99 104Z" fill="#3e5e8a" stroke="#3e5e8a"></path><path d="M99 104L0 202L135 241Z" fill="#2d79a2" stroke="#2d79a2"></path><path d="M119 454L0 540L130 540Z" fill="#3b638f" stroke="#3b638f"></path><path d="M0 202L0 344L122 304Z" fill="#444972" stroke="#444972"></path><path d="M0 0L0 125L99 104Z" fill="#356e99" stroke="#356e99"></path><path d="M0 344L0 414L119 454Z" fill="#386894" stroke="#386894"></path><path d="M102 0L0 0L99 104Z" fill="#386894" stroke="#386894"></path><path d="M0 414L0 540L119 454Z" fill="#386894" stroke="#386894"></path></g></svg>