<svg width="1348" height="758" viewBox="0 0 1348 758" fill="none" xmlns="http://www.w3.org/2000/svg">
<g clip-path="url(#clip0_69_2)">
<path d="M1348 0H0V758H1348V0Z" fill="#00192C"/>
<path d="M0 468.837L32.015 466.03C64.1704 463.222 128.2 457.607 192.371 434.446C256.541 411.285 320.571 370.578 384.742 373.104C448.912 375.771 512.942 421.532 577.393 442.868C641.704 464.205 706.296 460.836 770.607 462.52C835.058 464.205 899.088 470.662 963.258 452.414C1027.43 434.165 1091.46 391.212 1155.63 394.02C1219.8 396.827 1283.83 445.395 1315.99 469.82L1348 494.104V759.404H1315.99C1283.83 759.404 1219.8 759.404 1155.63 759.404C1091.46 759.404 1027.43 759.404 963.258 759.404C899.088 759.404 835.058 759.404 770.607 759.404C706.296 759.404 641.704 759.404 577.393 759.404C512.942 759.404 448.912 759.404 384.742 759.404C320.571 759.404 256.541 759.404 192.371 759.404C128.2 759.404 64.1704 759.404 32.015 759.404H0V468.837Z" fill="#6600FF"/>
<path d="M0 516.563L32.015 502.245C64.1704 488.068 128.2 459.432 192.371 463.222C256.541 467.012 320.571 502.947 384.742 501.543C448.912 500.14 512.942 461.397 577.393 443.991C641.704 426.726 706.296 430.937 770.607 447.781C835.058 464.626 899.088 494.104 963.258 490.173C1027.43 486.103 1091.46 448.764 1155.63 433.043C1219.8 417.321 1283.83 423.497 1315.99 426.445L1348 429.533V759.404H1315.99C1283.83 759.404 1219.8 759.404 1155.63 759.404C1091.46 759.404 1027.43 759.404 963.258 759.404C899.088 759.404 835.058 759.404 770.607 759.404C706.296 759.404 641.704 759.404 577.393 759.404C512.942 759.404 448.912 759.404 384.742 759.404C320.571 759.404 256.541 759.404 192.371 759.404C128.2 759.404 64.1704 759.404 32.015 759.404H0V516.563Z" fill="#4B03BB"/>
<path d="M0 630.263L32.015 612.296C64.1704 594.188 128.2 558.253 192.371 556.147C256.541 554.042 320.571 585.766 384.742 598.259C448.912 610.611 512.942 603.593 577.393 589.836C641.704 575.94 706.296 555.446 770.607 561.903C835.058 568.5 899.088 602.189 963.258 614.401C1027.43 626.473 1091.46 617.209 1155.63 606.4C1219.8 595.591 1283.83 583.52 1315.99 577.343L1348 571.307V759.404H1315.99C1283.83 759.404 1219.8 759.404 1155.63 759.404C1091.46 759.404 1027.43 759.404 963.258 759.404C899.088 759.404 835.058 759.404 770.607 759.404C706.296 759.404 641.704 759.404 577.393 759.404C512.942 759.404 448.912 759.404 384.742 759.404C320.571 759.404 256.541 759.404 192.371 759.404C128.2 759.404 64.1704 759.404 32.015 759.404H0V630.263Z" fill="#32047A"/>
<path d="M0 623.244L32.015 622.964C64.1704 622.823 128.2 622.262 192.371 627.034C256.541 631.667 320.571 641.493 384.742 638.404C448.912 635.457 512.942 619.454 577.393 617.209C641.704 614.822 706.296 626.052 770.607 629.14C835.058 632.088 899.088 627.034 963.258 636.86C1027.43 646.686 1091.46 671.391 1155.63 673.497C1219.8 675.603 1283.83 655.108 1315.99 644.721L1348 634.474V759.404H1315.99C1283.83 759.404 1219.8 759.404 1155.63 759.404C1091.46 759.404 1027.43 759.404 963.258 759.404C899.088 759.404 835.058 759.404 770.607 759.404C706.296 759.404 641.704 759.404 577.393 759.404C512.942 759.404 448.912 759.404 384.742 759.404C320.571 759.404 256.541 759.404 192.371 759.404C128.2 759.404 64.1704 759.404 32.015 759.404H0V623.244Z" fill="#1A0140"/>
</g>
<defs>
<clipPath id="clip0_69_2">
<rect width="1348" height="758" fill="white"/>
</clipPath>
</defs>
</svg>
